<?xml version="1.0" encoding="iso-8859-1"?>
<!-- Generator: Adobe Illustrator 21.1.0, SVG Export Plug-In . SVG Version: 6.00 Build 0)  -->
<svg xmlns="http://www.w3.org/2000/svg" xmlns:xlink="http://www.w3.org/1999/xlink" version="1.1" id="Layer_1" x="0px" y="0px" viewBox="0 0 48 48" style="enable-background:new 0 0 48 48;" xml:space="preserve">
<g style="display:none;">
</g>
<path style="fill:#1565C0;" d="M25,32L25,32l-5,1l-5-1c0,0-11,1.986-11,13h32C36,34.025,25,32,25,32"/>
<polygon style="fill:#FF9800;" points="20,38 15,32 15,26 25,26 25,32 "/>
<path style="fill:#F9A825;" d="M31,20c0,1.106-0.896,2-2,2c-1.106,0-2-0.894-2-2c0-1.105,0.894-2,2-2C30.104,18,31,18.895,31,20   M13,20c0-1.105-0.896-2-2-2c-1.106,0-2,0.895-2,2c0,1.106,0.894,2,2,2C12.104,22,13,21.106,13,20"/>
<path style="fill:#FFB74D;" d="M29,14c0-7.635-18-4.971-18,0v7c0,4.971,4.028,9,9,9c4.971,0,9-4.029,9-9V14z"/>
<path style="fill:#424242;" d="M20,5c-6.075,0-10,4.926-10,11v2.286L12,20v-5l12-4l4,4v5l2-1.742V16c0-4.025-1.038-8.016-6-9l-1-2  H20z"/>
<path style="fill:#784719;" d="M23,20c0-0.551,0.448-1,1-1s1,0.449,1,1s-0.448,1-1,1S23,20.551,23,20 M15,20c0,0.551,0.448,1,1,1  s1-0.449,1-1s-0.448-1-1-1S15,19.449,15,20"/>
<path style="fill:#283593;" d="M26,32.254V41H14v-8.749c-0.945,0.28-2.445,0.823-4,1.791V41v2v2h20v-2v-2v-6.941  C28.444,33.086,26.944,32.536,26,32.254z"/>
<path style="fill:#263238;" d="M14,41L14,41h-4l0,0v-3l0,0h4l0,0V41z M30,38L30,38h-4l0,0v3l0,0h4l0,0V38z"/>
<path style="fill:#1565C0;" d="M30,14.52v-2.255C30,7.257,25.216,4,20,4l0,0c-5.216,0-10,3.257-10,8.265v2.311  c0,0,3.889-2.576,10-2.576S30,14.52,30,14.52z"/>
<path style="fill:#1976D2;" d="M14,13h12c0,0-0.5-7.44-5.996-9.416C14.333,5.987,14,13,14,13z"/>
<ellipse style="fill:#42A5F5;" cx="20" cy="3.64" rx="1.333" ry="0.64"/>
<path style="fill:#42A5F5;" d="M20,12c-6,0-8.75,1.669-10,2.52C11,16,11.922,17,12.618,17l0,0c0.473,0,1.381-1,7.381-1  s6.859,1,7.334,1C28.025,17,29,16,30,14.52C29.028,13.689,26,12,20,12z"/>
<path style="fill:#FF9800;" d="M45.111,45H29.889C29.4,45,29,44.6,29,44.111V29.889C29,29.4,29.4,29,29.889,29h15.222  C45.6,29,46,29.4,46,29.889v14.222C46,44.6,45.6,45,45.111,45z"/>
<rect x="36" y="29" style="fill:#FFB74D;" width="3" height="5"/>
<rect x="34" y="42" style="fill:#3E2723;" width="7" height="1"/>
<rect x="39" y="38" style="fill:#3E2723;" width="1" height="3"/>
<polygon style="fill:#3E2723;" points="39.5,37 38,39 41,39 "/>
<rect x="35" y="38" style="fill:#3E2723;" width="1" height="3"/>
<polygon style="fill:#3E2723;" points="35.5,37 34,39 37,39 "/>
</svg>
